# AST/ASF file generated using VICON BodyLanguage
# -----------------------------------------------
:version 1.10
:name VICON
:units
  mass 1.0
  length 0.45
  angle deg
:documentation
   .ast/.asf automatically generated from VICON data using
   VICON BodyBuilder and BodyLanguage model FoxedUp or BRILLIANT.MOD
:root
   order TX TY TZ RX RY RZ
   axis XYZ
   position 0 0 0  
   orientation 0 0 0 
:bonedata
  begin
     id 1 
     name lhipjoint
     direction 0.702568 -0.596508 0.388042 
     length 2.56661 
     axis 0 0 0  XYZ
  end
  begin
     id 2 
     name lfemur
     direction 0.34202 -0.939693 0  
     length 6.58374  
     axis 0 0 20  XYZ
    dof rx ry rz
    limits (-160.0 20.0)
           (-70.0 70.0)
           (-60.0 70.0)
  end
  begin
     id 3 
     name ltibia
     direction 0.34202 -0.939693 0   
     length 6.62538   
     axis 0 0 20   XYZ
    dof rx
    limits (-10.0 170.0)
  end
  begin
     id 4 
     name lfoot
     direction 0.10455 -0.287249 0.952133   
     length 2.26699   
     axis -90 7.62852e-016 20   XYZ
    dof rx rz
    limits (-45.0 90.0)
           (-70.0 20.0)
  end
  begin
     id 5 
     name ltoes
     direction 1.53572e-011 -4.22322e-011 1   
     length 1.12949   
     axis -90 7.62852e-016 20   XYZ
    dof rx
    limits (-90.0 20.0)
  end
  begin
     id 6 
     name rhipjoint
     direction -0.728055 -0.574632 0.373811   
     length 2.66432  
     axis 0 0 0  XYZ 
  end
  begin
     id 7 
     name rfemur
     direction -0.34202 -0.939693 0   
     length 6.66732   
     axis 0 0 -20   XYZ
    dof rx ry rz
    limits (-160.0 20.0)
           (-70.0 70.0)
           (-70.0 60.0)
  end
  begin
     id 8 
     name rtibia
     direction -0.34202 -0.939693 0   
     length 6.59288   
     axis 0 0 -20   XYZ
    dof rx
    limits (-10.0 170.0)
 end
 begin
     id 9 
     name rfoot
     direction -0.119193 -0.327479 0.93731   
     length 2.38061  
     axis -90 -7.62852e-016 -20   XYZ
    dof rx rz
    limits (-45.0 90.0)
           (-20.0 70.0)
  end
  begin
     id 10 
     name rtoes
     direction -1.53547e-011 -4.21827e-011 1   
     length 1.17899   
     axis -90 -7.62852e-016 -20   XYZ
    dof rx
    limits (-90.0 20.0)
  end
  begin
     id 11 
     name lowerback
     direction -0.000416114 0.999912 -0.0132284   
     length 2.12109   
     axis 0 0 0   XYZ
    dof rx ry rz
    limits (-20.0 45.0)
           (-30.0 30.0)
           (-30.0 30.0)
  end
  begin
     id 12 
     name upperback
     direction -0.00136371 0.99809 0.0617608   
     length 2.10067   
     axis 0 0 0   XYZ
    dof rx ry rz
    limits (-20.0 45.0)
           (-30.0 30.0)
           (-30.0 30.0)
  end
  begin
     id 13 
     name thorax
     direction -3.43026e-005 0.997776 0.0666515   
     length 2.10618   
     axis 0 0 0   XYZ
    dof rx ry rz
    limits (-20.0 45.0)
           (-30.0 30.0)
           (-30.0 30.0)
  end
  begin
     id 14 
     name lowerneck
     direction 0.0398646 0.998418 0.0396592   
     length 1.83817   
     axis 0 0 0   XYZ
    dof rx ry rz
    limits (-20.0 45.0)
           (-30.0 30.0)
           (-30.0 30.0)
  end
  begin
     id 15 
     name upperneck
     direction -0.0367268 0.961527 -0.272244   
     length 1.81975   
     axis 0 0 0   XYZ
    dof rx ry rz
    limits (-20.0 45.0)
           (-30.0 30.0)
           (-30.0 30.0)
  end
  begin
     id 16
     name head
     direction -0.0182665 0.99536 -0.0944669  
     length 1.86026  
     axis 0 0 0   XYZ
    dof rx ry rz
    limits (-20.0 45.0)
           (-30.0 30.0)
           (-30.0 30.0)
  end
  begin
     id 17 
     name lclavicle
     direction 0.924239 0.361045 0.124212  
     length 3.26878  
     axis 0 0 0   XYZ
    dof ry rz
    limits (-20.0 10.0)
           (0.0 20.0)
  end
  begin
     id 18 
     name lhumerus
     direction 1 -4.48968e-011 -2.56583e-027   
     length 4.58538   
     axis 180 -30 -90   XYZ
    dof rx ry rz
    limits (-60.0 90.0)
           (-90.0 90.0)
           (-90.0 90.0)
  end
  begin
     id 19
     name lradius
     direction 1 -4.4898e-011 -5.50375e-027   
     length 2.68935   
     axis 180 -30 -90   XYZ
    dof rx
    limits (-10.0 170.0)
  end
  begin
     id 20
     name lwrist
     direction 1 -4.48939e-011 -1.48955e-026   
     length 1.34468   
     axis 9.0955e-015 90 90   XYZ
    dof ry
    limits (-180.0 0.0)
 end
  begin
     id 21 
     name lhand
     direction 1 -4.48936e-011 -2.97907e-026   
     length 0.585058   
     axis 1.90115e-014 90 90   XYZ
    dof rx rz
    limits (-90.0 90.0)
           (-45.0 45.0)
  end
  begin
     id 22 
     name lfingers
     direction 1 -4.49082e-011 -5.96235e-026   
     length 0.471689   
     axis 3.80223e-014 90 90   XYZ
    dof rx
    limits (0.0 90.0)
  end
  begin
     id 23
     name lthumb
     direction 0.707107 -6.3489e-011 0.707107   
     length 0.677253   
     axis -90 45 -3.84942e-014   XYZ
    dof rx rz
    limits (-45.0 45.0)
           (-45.0 45.0)
  end
  begin
     id 24 
     name rclavicle
     direction -0.923098 0.371783 0.0983239   
     length 3.19656  
     axis 0 0 0   XYZ 
    dof ry rz
    limits (-10.0 20.0)
           (-20.0 0.0)
  end
  begin
     id 25 
     name rhumerus
     direction -1 -4.48976e-011 -2.5492e-027  
     length 4.4745   
     axis 180 30 90   XYZ
    dof rx ry rz
    limits (-90.0 60.0)
           (-90.0 90.0)
           (-90.0 90.0)
  end
  begin
     id 26 
     name rradius
     direction -1 -4.48941e-011 -4.36555e-027   
     length 2.93896   
     axis 180 30 90   XYZ
    dof rx
    limits (-10.0 170.0)
  end
  begin
     id 27 
     name rwrist
     direction -1 -4.49044e-011 -1.49032e-026   
     length 1.46948   
     axis 9.0955e-015 -90 -90   XYZ
    dof ry
    limits (-180.0 0.0)
  end
  begin
     id 28
     name rhand
     direction -1 -4.48826e-011 -2.97749e-026   
     length 0.405092   
     axis 1.90115e-014 -90 -90   XYZ
    dof rx rz
    limits (-90.0 90.0)
           (-45.0 45.0)
  end
  begin
     id 29
     name rfingers
     direction -1 -4.49209e-011 -5.96602e-026   
     length 0.326596   
     axis 3.80223e-014 -90 -90   XYZ
    dof rx
    limits (0.0 90.0)
  end
  begin
     id 30
     name rthumb
     direction -0.707107 -6.34776e-011 0.707107   
     length 0.468928   
     axis -90 -45 3.84942e-014   XYZ
    dof rx rz
    limits (-45.0 45.0)
           (-45.0 45.0)
  end
:hierarchy
  begin
    root lhipjoint rhipjoint lowerback
    lhipjoint lfemur
    lfemur ltibia
    ltibia lfoot
    lfoot ltoes
    rhipjoint rfemur
    rfemur rtibia
    rtibia rfoot
    rfoot rtoes
    lowerback upperback
    upperback thorax
    thorax lowerneck lclavicle rclavicle
    lowerneck upperneck
    upperneck head
    lclavicle lhumerus
    lhumerus lradius
    lradius lwrist
    lwrist lhand lthumb
    lhand lfingers
    rclavicle rhumerus
    rhumerus rradius
    rradius rwrist
    rwrist rhand rthumb
    rhand rfingers
  end

#!OML:ASF H:\Punching\Project 1\Capture day 1\Session 1\female.ASF
:FULLY-SPECIFIED
:DEGREES
514
root -1.36475 14.8441 6.0421 12.6218 8.08033 4.24025
lowerback 1.25873 -3.04849 0.791265
upperback -5.02996 -3.96651 1.65236
thorax -5.85234 -1.96263 1.52224
lowerneck -9.22965 0.363527 8.34568
upperneck 33.1603 -0.983818 -1.41943
head 12.4842 0.421533 -2.13438
rclavicle 2.75814e-014 -1.66979e-014
rhumerus 8.86454 22.3848 -74.2372
rradius 135.979
rwrist -46.9374
rhand -14.3508 -6.82607
rfingers 7.12502
rthumb 11.7908 -36.4742
lclavicle 2.75814e-014 -1.66979e-014
lhumerus 6.81304 -24.2458 79.735
lradius 138.318
lwrist 40.569
lhand -11.1715 35.7375
lfingers 7.12502
lthumb 14.8553 65.185
rfemur -42.9598 3.71457 6.49123
rtibia 53.2883
rfoot -19.2289 -7.46015
rtoes -7.52157
lfemur 10.6206 -7.66911 -9.81186
ltibia 8.38671
lfoot -13.0447 4.06964
ltoes -33.3387
515
root -1.3657 14.8505 6.04502 12.5766 9.82529 4.26102
lowerback 1.43415 -2.79427 1.32722
upperback -5.11367 -3.58919 1.74447
thorax -6.07633 -1.79581 1.31067
lowerneck -9.2737 -0.404266 7.48578
upperneck 32.8932 -2.02768 -0.965463
head 12.3286 -0.0913696 -1.93753
rclavicle 5.2181e-015 -1.27222e-014
rhumerus 8.56526 21.404 -73.6575
rradius 136.479
rwrist -47.3392
rhand -14.3218 -7.03846
rfingers 7.12502
rthumb 11.8188 -36.685
lclavicle 5.2181e-015 -1.27222e-014
lhumerus 6.05686 -25.8865 80.2527
lradius 139.741
lwrist 39.8165
lhand -10.7102 35.2987
lfingers 7.12502
lthumb 15.2996 64.7128
rfemur -42.1693 3.02815 6.54172
rtibia 53.2759
rfoot -19.4381 -8.27193
rtoes -7.75811
lfemur 9.18594 -9.37702 -9.47363
ltibia 10.213
lfoot -13.7099 4.62665
ltoes -33.3395
516
root -1.36667 14.8553 6.04526 12.5145 11.4115 4.20914
lowerback 1.63964 -2.51756 1.87128
upperback -5.2056 -3.1758 1.85552
thorax -6.32128 -1.61248 1.11046
lowerneck -9.24306 -1.15348 6.64395
upperneck 32.5925 -3.0414 -0.502966
head 12.1646 -0.589723 -1.73515
rclavicle -2.47984e-014 -1.11319e-014
rhumerus 8.29 20.3938 -73.072
rradius 136.943
rwrist -47.857
rhand -14.3145 -7.23692
rfingers 7.12502
rthumb 11.8259 -36.883
lclavicle -2.47984e-014 -1.11319e-014
lhumerus 5.47938 -27.516 80.7367
lradius 140.862
lwrist 38.9047
lhand -10.3333 34.8926
lfingers 7.12502
lthumb 15.6627 64.2786
rfemur -41.4438 2.54162 6.64516
rtibia 53.246
rfoot -19.5949 -9.1369
rtoes -7.96028
lfemur 7.88386 -9.63395 -8.86779
ltibia 11.7917
lfoot -14.2412 3.93054
ltoes -33.298
517
root -1.36811 14.8581 6.04307 12.4408 12.7855 4.11956
lowerback 1.87215 -2.2257 2.35477
upperback -5.28792 -2.73888 1.99733
thorax -6.56204 -1.41522 0.971433
lowerneck -9.21038 -1.85238 5.83022
upperneck 32.2868 -3.97514 -0.0796446
head 12.0178 -1.05492 -1.54267
rclavicle -1.11319e-014 -3.18055e-014
rhumerus 8.11978 19.3967 -72.4692
rradius 137.336
rwrist -48.4905
rhand -14.3056 -7.40869
rfingers 7.12502
rthumb 11.8344 -37.0543
lclavicle -1.11319e-014 -3.18055e-014
lhumerus 5.09189 -29.0665 81.1754
lradius 141.72
lwrist 37.8751
lhand -10.0382 34.534
lfingers 7.12502
lthumb 15.9469 63.8975
rfemur -40.8211 2.27552 6.76118
rtibia 53.2272
rfoot -19.7057 -10.0366
rtoes -8.12288
lfemur 6.75705 -9.80316 -8.30771
ltibia 13.1513
lfoot -14.7007 3.37751
ltoes -33.23
518
root -1.36996 14.8584 6.03911 12.3726 13.8971 4.04281
lowerback 2.11763 -1.91166 2.72048
upperback -5.36312 -2.27418 2.14726
thorax -6.7929 -1.19929 0.900727
lowerneck -9.18043 -2.49047 5.08984
upperneck 31.9973 -4.8147 0.269231
head 11.8924 -1.47864 -1.38018
rclavicle 3.42407e-014 1.11319e-014
rhumerus 8.05322 18.4279 -71.8915
rradius 137.637
rwrist -49.1911
rhand -14.2577 -7.51078
rfingers 7.12502
rthumb 11.8806 -37.1537
lclavicle 3.42407e-014 1.11319e-014
lhumerus 4.87957 -30.5218 81.5481
lradius 142.357
lwrist 36.8085
lhand -9.835 34.2278
lfingers 7.12502
lthumb 16.1425 63.5756
rfemur -40.338 2.22326 6.83389
rtibia 53.2441
rfoot -19.7789 -10.9318
rtoes -8.25131
lfemur 5.81086 -9.88868 -7.86321
ltibia 14.3092
lfoot -15.1046 2.98675
ltoes -33.1451
519
root -1.37176 14.8566 6.03429 12.3315 14.7336 4.02605
lowerback 2.35369 -1.58259 2.92979
upperback -5.42751 -1.7969 2.28942
thorax -6.9985 -0.97007 0.90354
lowerneck -9.1632 -3.05127 4.44848
upperneck 31.7355 -5.53762 0.523548
head 11.7895 -1.84973 -1.25719
rclavicle 1.13307e-014 1.27222e-014
rhumerus 8.08177 17.5307 -71.3725
rradius 137.851
rwrist -49.899
rhand -14.2295 -7.61907
rfingers 7.12502
rthumb 11.9078 -37.2604
lclavicle 1.13307e-014 1.27222e-014
lhumerus 4.82136 -31.8532 81.8476
lradius 142.806
lwrist 35.7422
lhand -9.67577 33.959
lfingers 7.12502
lthumb 16.2959 63.2943
rfemur -40.0086 2.33314 6.81711
rtibia 53.3122
rfoot -19.832 -11.7683
rtoes -8.34849
lfemur 5.0649 -9.91038 -7.58875
ltibia 15.2297
lfoot -15.4368 2.7624
ltoes -33.0677
